<?xml version="1.0" encoding="UTF-8"?>
<svg width="32px" height="28px" viewBox="0 0 32 28" version="1.1" xmlns="http://www.w3.org/2000/svg" xmlns:xlink="http://www.w3.org/1999/xlink">
    <!-- Generator: Sketch 49.3 (51167) - http://www.bohemiancoding.com/sketch -->
    <title>Page 1</title>
    <desc>Created with Sketch.</desc>
    <defs>
        <polygon id="path-1" points="0 0 32 0 32 28 0 28"></polygon>
    </defs>
    <g id="Page-1" stroke="none" stroke-width="1" fill="none" fill-rule="evenodd">
        <g id="Components" transform="translate(-807.000000, -1464.000000)">
            <g id="Page-1" transform="translate(807.000000, 1464.000000)">
                <mask id="mask-2" fill="white">
                    <use xlink:href="#path-1"></use>
                </mask>
                <g id="Clip-2"></g>
                <path d="M28.1127558,13.7873161 L15.9898243,25.8056426 L3.89402859,13.7670605 C2.56430513,12.4436942 1.83170559,10.6882083 1.83170559,8.81794068 C1.83170559,6.94767302 2.55758902,5.19218712 3.88717679,3.8755727 C5.21004845,2.55895828 6.97387732,1.82975645 8.84631735,1.82975645 C10.7254735,1.82975645 12.4960863,2.55895828 13.8256741,3.88232457 L15.3589163,5.40824693 C15.718466,5.76609597 16.2951024,5.76609597 16.6546521,5.40824693 L18.1742585,3.89582831 C19.5039141,2.57246202 21.2744591,1.84326019 23.1468992,1.84326019 C25.0192035,1.84326019 26.7830324,2.57246202 28.1127558,3.88907644 C29.4424115,5.21244273 30.1682949,6.96792862 30.1682949,8.83819629 C30.175011,10.7084639 29.4424115,12.4639498 28.1127558,13.7873161 M29.4152078,2.5994695 C27.7396382,0.931757897 25.5212842,0.0202556065 23.1536153,0.0202556065 C20.786082,0.0202556065 18.5608762,0.938509766 16.8853067,2.60622136 L16.0101762,3.47721244 L15.1214778,2.59271763 C13.4458403,0.925006028 11.2138506,0 8.84631735,0 C6.48550024,0 4.26036228,0.91825416 2.5915088,2.57921389 C0.915871371,4.24692549 -0.00674681018,6.46153846 3.71470308e-05,8.81794068 C3.71470308e-05,11.1743429 0.929439285,13.382204 2.60507672,15.0499156 L15.3453484,27.7299252 C15.5217313,27.9054738 15.7591698,28 15.9898243,28 C16.220411,28 16.4578495,27.9122257 16.6343002,27.7366771 L29.4017077,15.0769231 C31.0772773,13.4092115 31.9999633,11.1945985 31.9999633,8.83819629 C32.0066794,6.48179407 31.0908452,4.26718109 29.4152078,2.5994695" id="Fill-1" fill="#B2B2B2" mask="url(#mask-2)"></path>
            </g>
        </g>
    </g>
</svg>